<?xml version="1.0" encoding="UTF-8" standalone="no"?><!DOCTYPE svg PUBLIC "-//W3C//DTD SVG 1.1//EN" "http://www.w3.org/Graphics/SVG/1.1/DTD/svg11.dtd"><svg width="100%" height="100%" viewBox="0 0 3544 1355" version="1.1" xmlns="http://www.w3.org/2000/svg" xmlns:xlink="http://www.w3.org/1999/xlink" xml:space="preserve" xmlns:serif="http://www.serif.com/" style="fill-rule:evenodd;clip-rule:evenodd;stroke-linejoin:round;stroke-miterlimit:2;"><rect id="Signature" x="0" y="0" width="3543.03" height="1354.9" style="fill:none;"/><g><path d="M1373.74,746.901c-2.061,-3.031 -2.061,-6.062 0,-9.093c2.061,-4.547 -4.122,-27.279 -10.305,-27.279c-6.183,0 -35.038,-25.763 -41.221,-34.856c-6.183,-10.608 -35.038,-22.732 -86.564,-37.887c-35.038,-9.093 -53.587,-10.608 -146.334,-16.67c-57.709,-4.546 -144.273,-7.577 -193.739,-9.093c-72.136,0 -92.747,-1.515 -125.723,-7.577c-30.916,-6.062 -37.099,-9.093 -41.221,-16.67c-2.061,-4.547 -4.122,-9.093 -6.183,-9.093c-2.061,-0 -12.367,-1.516 -22.672,-4.547c-22.671,-6.062 -28.855,0 -14.427,15.155c4.122,6.062 8.244,13.639 8.244,18.186c-2.061,4.546 -2.061,6.062 -4.122,3.031c-4.122,-9.093 -10.305,-4.547 -12.366,6.062c-0,4.546 2.061,12.123 6.183,16.67c2.061,3.031 6.183,9.093 4.122,15.155c-2.061,16.67 18.549,39.402 35.038,40.917c2.061,0 12.366,4.547 20.61,9.093c28.855,19.701 131.907,34.856 257.631,36.372c59.77,1.515 61.831,1.515 57.709,9.093c-10.305,16.67 -43.282,71.227 -51.526,81.835c-6.183,6.062 -10.305,13.639 -10.305,15.155c-0,1.515 -2.061,1.515 -6.183,1.515c-4.122,0 -12.367,4.547 -16.489,10.609c-10.305,12.124 -12.366,21.216 -2.061,12.124c12.366,-9.093 10.305,-3.031 -6.183,31.825c-14.427,30.309 -28.855,50.01 -41.221,57.588c-2.061,3.031 -6.183,6.062 -6.183,9.092c-0,1.516 -4.122,1.516 -8.244,0c-4.122,-1.515 -6.183,0 -4.122,1.516c-0,1.515 -0,6.062 -4.122,9.093c-4.122,4.546 -6.184,4.546 -6.184,1.515c2.062,-1.515 -2.061,-3.031 -4.122,-3.031c-2.061,1.516 -4.122,4.547 -2.061,6.062c0,1.516 -2.061,1.516 -6.183,0c-8.244,-1.515 -8.244,-1.515 -4.122,4.547c6.183,6.062 6.183,7.577 -10.305,16.67c-10.305,6.062 -16.489,9.093 -14.427,6.062c2.061,-1.516 2.061,-4.547 2.061,-4.547c-2.061,0 -6.184,4.547 -10.306,10.609c-4.122,7.577 -8.244,10.608 -12.366,9.093c-4.122,-1.516 -6.183,-0 -4.122,3.03c-0,1.516 -2.061,6.062 -6.183,7.578c-8.244,4.546 -8.244,3.031 -6.183,-3.031c2.061,-6.062 -0,-3.031 -4.122,3.031c-12.367,15.155 -57.71,43.949 -115.419,72.743c-22.671,10.608 -43.282,22.732 -47.404,24.247c-18.549,13.64 -65.954,30.31 -65.954,24.248c2.062,-4.547 82.442,-54.557 86.564,-53.042c4.123,0 6.184,-1.515 4.123,-3.031c-2.062,-4.546 8.244,-9.093 20.61,-10.608c12.366,-0 32.977,-9.093 35.038,-13.639c-0,-3.031 8.244,-10.609 18.549,-16.671c16.489,-12.123 18.55,-15.154 10.305,-16.67c-6.183,-3.031 -6.183,-3.031 4.122,-3.031c10.306,-1.515 12.367,-3.031 12.367,-9.093c-0,-6.061 -0,-6.061 4.122,-1.515c4.122,7.577 4.122,7.577 22.671,-12.124c16.489,-13.639 14.428,-18.186 0,-10.608c-4.122,3.031 -2.061,-0 4.122,-6.062c6.184,-4.546 10.306,-7.577 12.367,-4.546c2.061,9.092 14.427,-0 22.671,-18.186c0,-1.516 6.183,-6.062 12.367,-10.609l24.732,-16.67c10.305,-7.577 14.427,-9.093 16.488,-4.546c2.062,3.031 4.123,3.031 6.184,-1.516c2.061,-3.031 4.122,-7.577 2.061,-7.577c-0,-1.516 -2.061,-0 -2.061,1.515c-0,3.031 -2.061,4.547 -4.122,3.031c-2.062,-1.515 37.098,-39.402 55.648,-53.041c8.244,-4.547 10.305,-9.093 8.244,-15.155c-4.122,-7.577 -4.122,-7.577 -16.488,6.062c-6.184,6.062 -12.367,13.639 -16.489,15.155c-4.122,1.515 -8.244,4.546 -8.244,7.577c0,3.031 -2.061,4.546 -4.122,3.031c-2.061,-1.515 -6.183,1.515 -8.244,4.546c-2.061,4.547 -12.367,12.124 -20.611,18.186l-63.892,48.495l-55.648,42.434c-6.184,3.031 -18.55,10.608 -28.855,19.701c-24.733,18.186 -105.113,68.196 -158.701,96.99l-47.404,25.763c-10.305,6.062 -78.319,28.794 -119.54,39.403c-41.221,12.123 -84.503,16.67 -133.968,16.67l-32.977,1.515l-14.427,-15.154c-8.245,-9.093 -16.489,-24.248 -20.611,-34.856l-8.244,-24.248c-10.305,-18.186 -2.061,-121.238 14.427,-174.28c10.305,-36.371 43.282,-119.722 51.526,-131.846l16.489,-30.309l12.366,-25.764c2.061,-3.03 10.305,-13.639 14.427,-22.732l18.55,-22.732l18.549,-24.247l41.221,-56.073c18.55,-21.217 32.977,-39.402 32.977,-42.433c-0,-1.516 10.305,-12.124 22.671,-22.732c10.306,-10.609 24.733,-25.763 28.855,-33.341c4.122,-6.062 10.305,-13.639 14.427,-15.155c4.122,-1.515 14.428,-10.608 22.672,-19.701l43.282,-42.433l28.854,-28.794c0,-1.516 2.062,-4.547 6.184,-7.578c4.122,-1.515 18.549,-13.639 32.976,-25.763l47.404,-37.886c39.16,-27.279 181.372,-122.754 185.495,-122.754c2.061,0 18.549,-7.577 37.098,-18.186c47.404,-28.794 70.076,-39.402 88.625,-45.464c8.245,-1.515 18.55,-6.062 22.672,-7.577c10.305,-4.547 47.404,-16.671 86.564,-25.763c49.465,-13.64 45.343,-13.64 55.648,6.062c6.183,15.154 6.183,27.278 0,92.444c-4.122,63.649 -8.244,80.32 -20.61,115.176c-14.428,37.887 -43.282,92.444 -53.588,101.536c-14.427,12.124 -26.793,30.31 -24.732,33.341c-0,1.515 -2.061,6.062 -4.122,9.093c-6.183,3.031 -6.183,4.546 -2.061,4.546c10.305,1.516 47.404,-18.185 49.465,-24.247c-0,-3.031 4.122,-4.547 10.305,-4.547c10.305,1.516 39.16,-15.155 41.221,-24.247c0,-4.547 8.244,-18.186 14.427,-31.825c8.245,-13.64 20.611,-36.372 26.794,-50.011c10.305,-18.186 12.366,-19.701 8.244,-9.093l-8.244,34.856c-0,13.639 -2.061,15.155 -4.122,9.093c-2.061,-9.093 -2.061,-7.578 -8.244,4.546c-2.061,7.578 -8.244,16.67 -10.306,18.186c-4.122,3.031 -6.183,9.093 -4.122,13.639c0,4.547 0,9.093 -2.061,7.578c-2.061,-1.516 -4.122,3.031 -6.183,9.092c0,15.155 10.305,16.671 22.672,1.516l28.854,-24.248c10.306,-6.062 16.489,-12.123 16.489,-15.154c2.061,-3.031 4.122,-6.062 8.244,-9.093c4.122,-1.516 14.427,-13.64 22.671,-28.794c8.245,-13.64 18.55,-27.279 26.794,-31.825c12.366,-6.062 12.366,-9.093 14.427,-48.495c6.183,-72.743 -4.122,-115.177 -30.915,-127.3c-14.428,-6.062 -2.061,-37.887 -0,-45.465c-0,-4.546 -32.977,-22.732 -68.015,-54.557c-14.427,-13.639 -41.221,-3.031 -59.77,-9.093c-37.099,-12.123 -94.808,-24.247 -111.297,-21.216c-6.183,-0 -18.549,-1.516 -24.732,-4.547c-8.244,-3.031 -16.489,-1.515 -49.465,9.093c-47.404,15.155 -103.053,36.372 -119.541,46.98l-55.648,27.278c-22.672,12.124 -45.343,24.248 -51.527,25.764c-14.427,7.577 -144.273,95.474 -187.555,128.815c-43.282,31.825 -76.258,57.588 -111.296,92.444c-37.099,36.371 -41.221,39.402 -47.404,48.495c-2.061,3.031 -12.367,15.155 -22.672,24.248c-117.479,121.238 -199.921,239.445 -245.264,353.105c-20.611,51.527 -24.733,68.197 -30.916,119.723c-8.244,57.588 -10.305,110.63 -6.183,131.846c6.183,37.887 26.793,92.444 37.099,101.537c4.122,3.031 14.427,15.155 20.61,25.763c14.427,19.701 28.855,33.341 53.587,46.98c39.16,22.732 103.053,53.042 119.541,57.588c20.61,6.062 80.381,9.093 115.419,7.577c49.465,-3.03 117.479,-13.639 154.578,-25.763c45.343,-13.639 51.526,-16.67 78.32,-33.34c14.427,-9.093 35.038,-19.701 43.282,-22.732c30.916,-15.155 127.785,-75.774 154.578,-98.506c16.489,-13.639 35.038,-28.794 43.282,-33.341l14.428,-9.092l-4.122,34.856c-4.123,40.917 -0,100.021 10.305,115.176c6.183,13.639 22.671,25.763 37.099,30.309c12.366,3.031 14.427,1.516 20.61,-13.639c4.122,-10.608 8.244,-16.67 12.366,-16.67c4.122,1.515 6.183,-3.031 8.245,-10.609c2.061,-22.732 12.366,-54.557 16.488,-56.072c2.061,-0 6.183,-3.031 6.183,-6.062c0,-4.547 2.061,-7.578 4.122,-9.093c4.122,-3.031 10.305,-19.701 16.488,-37.887c4.123,-19.701 12.367,-39.402 18.55,-43.949c4.122,-6.062 8.244,-13.639 8.244,-16.67c0,-4.546 4.122,-10.608 6.183,-13.639c4.122,-3.031 14.428,-21.217 26.794,-40.918c30.916,-53.042 96.869,-153.063 105.113,-159.125c6.183,-3.031 6.183,-12.124 0,-9.093c-4.122,1.516 -4.122,0 0,-4.546c22.672,-27.279 24.733,-33.341 24.733,-48.495c-0,-7.578 -2.061,-18.186 -2.061,-22.733c-4.122,-4.546 -2.061,-6.061 16.488,-3.03l74.198,9.092c45.343,6.062 53.587,6.062 61.831,0c6.183,-3.031 8.244,-6.062 4.122,-9.092Zm-1216.02,-1.516c-0,3.031 -4.122,10.608 -10.305,16.67c-4.122,4.547 -6.184,10.609 -6.184,12.124c2.062,1.516 -2.061,6.062 -6.183,12.124c-24.732,33.34 16.489,-50.011 53.588,-109.114c35.037,-54.557 90.686,-125.785 133.968,-171.249c78.319,-83.351 121.601,-127.3 144.273,-147.001c6.183,-6.062 32.977,-25.763 111.296,-84.867l45.343,-31.825l35.038,-22.732c39.16,-27.278 47.404,-33.34 78.32,-50.011c30.916,-18.185 123.663,-57.588 131.907,-56.072c2.061,-0 8.244,-3.031 12.366,-4.547c10.305,-7.577 51.526,-18.185 49.465,-13.639c0,1.516 -6.183,4.547 -12.366,4.547c-10.305,1.515 -12.366,3.03 -6.183,4.546c4.122,3.031 4.122,4.546 -2.061,4.546c-2.061,-1.515 -28.855,10.609 -57.71,24.248c-26.793,13.639 -55.648,27.279 -63.892,28.794c-6.183,3.031 -22.671,10.608 -32.977,18.186c-12.366,6.062 -22.671,12.124 -24.732,10.608c-2.061,0 -14.428,7.577 -26.794,18.186l-39.16,24.247c-8.244,4.547 -14.427,10.609 -12.366,12.124c2.061,3.031 -0,3.031 -2.061,1.516c-6.183,-3.031 -117.48,72.742 -125.724,84.866c-2.061,1.516 -12.366,10.609 -26.793,18.186c-12.367,9.093 -22.672,18.186 -20.611,19.701c2.061,1.516 0,3.031 -2.061,1.516c-2.061,-1.516 -8.244,3.031 -14.427,9.092c-6.183,7.578 -12.367,13.64 -16.489,16.671c-12.366,9.093 -121.601,124.269 -144.273,153.063l-22.671,24.247c-14.428,12.124 -117.48,160.641 -119.541,171.249Zm733.732,287.94c-63.892,40.918 -84.503,54.557 -84.503,57.588c0,4.547 -72.136,45.465 -107.174,60.619c-32.977,13.64 -57.709,28.794 -57.709,33.341c-2.061,3.031 -4.122,4.546 -6.183,3.031c-8.245,-0 10.305,-18.186 32.976,-34.856c10.306,-7.577 20.611,-19.701 24.733,-25.763c6.183,-12.124 39.16,-34.856 49.465,-33.341c2.061,0 4.122,-3.031 4.122,-6.062c2.061,-3.031 2.061,-6.061 4.122,-4.546c2.061,3.031 45.343,-22.732 74.198,-45.464c6.183,-4.547 24.732,-15.155 39.16,-25.763c30.915,-19.701 45.343,-31.825 47.404,-34.856c-0,-3.031 20.61,-16.67 22.671,-15.155c2.061,1.515 0,6.062 -2.061,9.093c-4.122,4.546 -8.244,16.67 -10.305,27.278c-6.183,16.671 -10.305,22.733 -30.916,34.856Zm156.64,-192.465c4.122,6.062 2.061,7.577 -6.183,6.062c-2.061,-0 -4.122,3.031 -2.061,7.577c-0,6.062 -8.244,-3.031 -8.244,3.031c-2.062,9.093 -20.611,27.279 -24.733,24.248c-2.061,-1.516 -2.061,-7.578 -0,-12.124l4.122,-9.093l-6.183,9.093c-6.183,6.062 -6.183,9.093 -0,13.639c4.122,4.547 8.244,4.547 16.488,-6.062c16.489,-16.67 18.55,-10.608 2.061,10.609c-8.244,10.608 -20.61,33.34 -28.854,48.495c-6.183,15.155 -16.489,31.825 -20.611,36.371c-6.183,3.031 -8.244,9.093 -6.183,10.609c2.061,3.031 0,9.093 -2.061,16.67c-2.061,6.062 -14.427,18.186 -26.794,25.763l-22.671,15.155l4.122,-10.609c2.061,-6.062 6.183,-10.608 8.244,-9.092c4.122,-0 6.183,-1.516 8.244,-4.547c0,-6.062 0,-6.062 8.245,-12.124c4.122,-3.031 4.122,-4.546 -2.061,-7.577c-4.123,-3.031 -8.245,-1.516 -10.306,4.546c-6.183,12.124 -6.183,1.516 4.122,-21.216c10.306,-28.794 24.733,-50.011 30.916,-43.949c2.061,4.546 2.061,3.031 2.061,-3.031c0,-4.546 0,-7.577 2.061,-9.093c2.061,0 10.305,-7.577 18.55,-16.67c8.244,-9.093 14.427,-15.155 10.305,-15.155c-2.061,1.516 -4.122,0 -4.122,-1.515c2.061,-9.093 -8.244,-0 -14.428,10.608c-4.122,10.608 -20.61,24.248 -18.549,18.186c0,-7.578 22.672,-43.949 24.733,-43.949c2.061,-0 4.122,-3.031 6.183,-6.062c-0,-12.124 12.366,-33.34 20.61,-39.402c4.122,-3.031 8.244,-7.578 6.183,-10.609c0,-3.031 0,-4.546 4.122,-3.031c2.061,1.516 6.184,0 10.306,-3.031c6.183,-6.061 6.183,-6.061 6.183,0c-2.061,4.547 -4.122,6.062 -6.183,6.062c-2.061,0 -6.184,4.547 -6.184,10.609c-2.061,7.577 -4.122,10.608 -6.183,9.092c-4.122,-1.515 -6.183,1.516 -6.183,7.578c-2.061,13.639 6.183,6.062 20.611,-18.186c6.183,-10.608 12.366,-18.186 14.427,-16.67c2.061,1.515 0,6.062 -4.122,12.124c-4.122,7.577 -4.122,12.124 -0,16.67Zm222.593,-169.733c-16.488,-6.062 -65.954,-12.124 -181.372,-21.217c-74.198,-6.062 -113.358,-10.608 -117.48,-13.639c-4.122,-3.031 0,-4.547 10.305,-3.031c24.733,1.515 113.358,3.031 123.663,3.031c4.122,-0 32.977,1.515 63.893,6.062c53.587,7.577 92.747,16.67 111.296,27.278c10.305,7.578 4.122,7.578 -10.305,1.516Zm-661.596,492.529c-8.244,4.547 -10.305,7.578 -8.244,18.186c2.061,10.608 2.061,12.124 -16.489,19.701c-10.305,6.062 -26.793,12.124 -35.037,15.155c-20.611,6.062 -43.282,7.577 -51.526,3.031c-6.184,-3.031 -4.123,-4.547 8.244,-4.547c18.549,-3.031 55.648,-18.185 51.526,-22.732c-2.061,-1.515 -0,-1.515 4.122,1.516c8.244,1.515 8.244,1.515 6.183,-3.031c-2.061,-3.031 -2.061,-3.031 2.061,-1.516c4.122,1.516 8.244,1.516 12.366,-1.515c6.184,-6.062 6.184,-9.093 -4.122,-10.609c-6.183,-1.515 -2.061,-4.546 12.367,-10.608c22.671,-10.608 37.098,-12.124 18.549,-3.031Zm350.378,-62.134c-4.122,-1.516 -6.183,-0 -0,12.124c2.061,4.546 2.061,9.092 -0,7.577c-2.061,-1.516 -4.122,6.062 -4.122,15.155c-0,10.608 -2.061,18.185 -4.122,19.701c-6.183,1.515 2.061,-63.65 10.305,-86.382l12.366,-36.372c4.122,-15.154 10.305,-24.247 18.55,-28.794c12.366,-7.577 14.427,-3.031 2.061,7.578c-4.122,4.546 -12.367,19.701 -14.428,34.856c-4.122,15.154 -10.305,28.794 -12.366,30.309c-2.061,1.516 -4.122,9.093 -4.122,15.155c0,6.062 -2.061,10.608 -4.122,9.093Zm-14.427,-48.495c-2.061,9.092 -8.245,24.247 -10.306,36.371c-4.122,12.124 -8.244,22.732 -8.244,25.763c0,1.515 -2.061,7.577 -4.122,13.639c0,4.547 -4.122,9.093 -6.183,9.093c-4.122,0 -4.122,-15.155 -0,-36.371c4.122,-33.341 6.183,-37.887 18.549,-50.011l14.428,-12.124l-4.122,13.64Zm57.709,-7.578c-4.122,1.516 -6.183,4.547 -4.122,9.093c-0,3.031 -0,13.639 -4.122,22.732c-4.122,15.155 -6.183,15.155 -8.244,4.547c-0,-6.062 -2.062,-0 -2.062,15.154c-2.061,24.248 -8.244,39.403 -14.427,30.31c-2.061,-3.031 0,-4.547 2.061,-4.547c4.122,1.516 6.183,-4.546 6.183,-10.608c2.061,-12.124 2.061,-12.124 -4.122,-3.031c-10.305,18.186 2.061,-22.732 18.55,-63.65c8.244,-18.186 8.244,-19.701 12.366,-12.124c2.061,6.062 2.061,10.609 -2.061,12.124Zm35.038,-118.207c-4.122,9.093 -14.428,24.248 -22.672,34.856c-10.305,12.124 -14.427,15.155 -10.305,7.577c2.061,-6.062 6.183,-16.67 10.305,-22.732c6.183,-15.155 24.733,-40.918 26.794,-37.887c2.061,1.516 -0,9.093 -4.122,18.186Zm105.113,-506.169c-4.122,6.062 -8.244,18.186 -12.366,25.763c-2.061,6.062 -6.183,12.124 -6.183,12.124c-14.428,-4.546 -12.367,-10.608 12.366,-37.887l10.305,-13.639l-4.122,13.639Zm-166.945,233.384c-4.122,-3.031 8.244,-3.031 39.16,-0c26.794,1.515 45.343,3.03 45.343,3.03c-6.183,4.547 -78.32,1.516 -84.503,-3.03Zm-4.122,513.746c-2.061,19.701 -4.122,34.856 -6.183,34.856c-4.122,-0 -2.061,-39.403 4.122,-54.558c4.122,-13.639 4.122,-10.608 2.061,19.702Zm-90.686,-106.084c-10.305,9.093 -16.488,13.64 -16.488,10.609c-0,-1.516 2.061,-4.547 6.183,-6.062c2.061,-0 4.122,-3.031 2.061,-4.547c-2.061,-3.031 4.122,-7.577 12.366,-13.639c6.183,-4.546 12.367,-7.577 12.367,-4.546c-0,1.515 -8.245,10.608 -16.489,18.185Zm76.259,-74.258c-4.122,1.516 -8.244,0 -8.244,-1.515c-0,-1.516 -0,-3.031 -2.061,-4.547c-4.122,0 -6.184,3.031 -6.184,6.062c0,6.062 16.489,7.577 20.611,3.031c4.122,-3.031 2.061,-4.546 -4.122,-3.031Zm-45.343,96.99c-0,9.093 -2.061,16.671 -4.122,16.671c-4.122,-1.516 -4.122,-7.578 -0,-19.701l6.183,-12.124l-2.061,15.154Zm-682.207,-394.023c-2.061,9.093 -10.305,13.639 -12.366,9.093c-2.061,-1.516 0,-6.062 4.122,-9.093c8.244,-7.577 8.244,-7.577 8.244,-0Zm-28.854,-0c6.183,-6.062 10.305,-10.608 12.366,-10.608c0,-0 -2.061,4.546 -4.122,10.608c-4.122,6.062 -8.244,10.608 -12.366,10.608c-2.061,0 -0,-4.546 4.122,-10.608Zm199.921,-228.837c-14.427,15.155 -16.488,13.639 -4.122,-1.515c4.122,-7.578 10.305,-12.124 10.305,-10.609c2.062,0 -2.061,6.062 -6.183,12.124Zm-125.724,134.877c-6.183,6.062 -10.305,10.609 -10.305,7.578c0,-1.516 6.183,-9.093 12.367,-15.155c6.183,-6.062 10.305,-10.608 10.305,-9.093c-0,3.031 -6.183,9.093 -12.367,16.67Zm809.992,-109.114c-4.122,3.031 -4.122,0 -0,-4.546c2.061,-6.062 6.183,-10.609 10.305,-12.124c4.122,-3.031 4.122,-1.515 -0,4.546c-2.061,4.547 -6.183,10.609 -10.305,12.124Zm-72.137,545.571c-2.061,1.516 -4.122,-3.031 -6.183,-9.093l-0,-10.608c2.061,-1.515 4.122,3.031 6.183,9.093l0,10.608Zm-360.683,109.115c10.305,-4.547 16.488,-4.547 12.366,-0c-2.061,3.031 -8.244,3.031 -12.366,3.031c-8.244,-0 -8.244,-1.516 -0,-3.031Zm-422.515,-484.953c-4.122,3.031 -6.183,4.547 -6.183,3.031c0,-4.546 10.306,-13.639 12.367,-12.123c2.061,1.515 -2.061,6.062 -6.184,9.092Zm37.099,-28.794c-2.061,3.031 -4.122,3.031 -4.122,1.516c0,-1.516 2.061,-6.062 4.122,-9.093c4.122,-3.031 6.183,-3.031 6.183,-1.515c0,3.031 -4.122,6.061 -6.183,9.092Zm399.843,501.623c4.122,-1.516 6.183,-0 6.183,1.515c0,3.031 -4.122,4.547 -6.183,4.547c-2.061,-0 -4.122,-1.516 -4.122,-3.031l4.122,-3.031Zm391.599,-328.858c-4.122,1.515 -6.183,-0 -6.183,-1.516c0,-3.031 4.122,-4.546 6.183,-4.546c2.061,-0 4.122,1.515 4.122,3.031l-4.122,3.031Zm-638.924,-357.653c-2.061,0 -4.122,0 -4.122,-3.031c-0,-1.515 2.061,-3.03 4.122,-3.03c4.122,-0 6.183,1.515 6.183,1.515c-0,1.515 -2.061,3.031 -6.183,4.546Zm688.389,37.887c0,1.516 -2.061,3.031 -6.183,4.547c-2.061,-0 -4.122,-0 -4.122,-3.031c0,-1.516 2.061,-3.031 4.122,-3.031c4.122,-0 6.183,1.515 6.183,1.515Zm-910.982,227.322c-0,1.515 -2.061,3.031 -4.122,3.031c-4.122,-0 -6.184,-1.516 -6.184,-1.516c0,-1.515 4.123,-3.031 6.184,-4.546c2.061,-0 4.122,-0 4.122,1.515l-0,1.516Zm185.494,-228.837c-4.122,6.062 -8.244,7.577 -8.244,3.031l6.183,-6.062c4.122,-1.516 4.122,-0 2.061,3.031Zm-269.997,363.714c-4.122,6.062 -8.244,6.062 -6.183,1.515c-0,-1.515 2.061,-4.546 4.122,-6.062c4.122,0 4.122,1.516 2.061,4.547Zm247.325,-337.951c0,6.062 -2.061,6.062 -4.122,1.515c-2.061,-3.031 -2.061,-4.546 2.061,-6.061c2.061,-0 4.122,1.515 2.061,4.546Zm727.55,253.084c-2.061,1.516 -4.122,0 -4.122,-1.515c-0,-1.516 2.061,-3.031 6.183,-3.031c2.061,-0 4.122,-0 4.122,1.515c-0,1.516 -2.061,3.031 -6.183,3.031Zm-645.108,-337.951c0,1.516 -2.061,3.031 -4.122,3.031c-4.122,0 -6.183,-1.515 -6.183,-1.515c0,-1.516 2.061,-3.031 6.183,-3.031c2.061,-1.516 4.122,-1.516 4.122,1.515Zm548.239,642.562c-0,6.062 -0,9.093 2.061,4.546c2.061,-3.031 2.061,-7.577 2.061,-10.608c-2.061,-1.516 -2.061,-0 -4.122,6.062Zm-82.442,53.041c-2.061,1.516 -4.122,1.516 -4.122,-3.03c-0,-4.547 2.061,-6.062 4.122,-4.547c2.061,1.516 -0,4.547 -0,7.577Zm414.27,-383.415c-4.122,0 -6.183,-1.515 -6.183,-3.031c2.061,-1.515 6.183,0 10.305,0c4.122,1.516 2.061,3.031 -4.122,3.031Zm-138.09,101.537c-4.122,6.062 -6.183,7.577 -6.183,3.031c-0,-3.031 2.061,-4.546 6.183,-6.062c2.061,-1.515 2.061,0 -0,3.031Zm-731.672,-422.818c-2.061,1.516 -4.122,1.516 -4.122,-3.03c2.061,-4.547 2.061,-6.062 4.122,-4.547c2.062,1.516 2.062,4.547 0,7.577Zm463.736,753.192c-2.061,1.515 -2.061,-0 -2.061,-6.062c-0,-4.547 2.061,-6.062 2.061,-3.031c2.061,1.515 2.061,6.062 -0,9.093Zm239.081,-780.47c0,-4.547 2.061,-7.577 2.061,-4.547c2.061,3.031 2.061,7.578 0,9.093c-2.061,3.031 -2.061,0 -2.061,-4.546Zm-212.287,798.655c-0,3.031 -2.062,0 -0,-7.577c-0,-6.062 2.061,-9.093 2.061,-6.062c-0,4.547 -0,9.093 -2.061,13.639Zm105.113,-281.878c-2.061,3.031 -2.061,3.031 -2.061,-1.515c-0,-4.547 2.061,-6.062 2.061,-4.547c2.061,1.516 2.061,4.547 -0,6.062Zm-26.794,93.959c-2.061,3.031 -2.061,1.516 -2.061,-1.515c0,-4.546 2.061,-6.062 2.061,-4.546c2.061,-0 2.061,3.031 0,6.061Zm-68.014,189.435c-2.061,3.031 -2.061,1.515 -2.061,-1.516c-0,-4.546 2.061,-6.062 2.061,-4.546c2.061,-0 2.061,4.546 -0,6.062Z" style="fill:#ffdb58;fill-rule:nonzero;"/><path d="M2093.04,549.889c-6.183,-24.248 -30.915,-39.403 -32.976,-40.918c-2.061,-1.516 -30.916,-16.67 -45.343,-18.186c-12.367,-1.515 -26.794,4.547 -32.977,1.516c-8.244,-6.062 -98.93,45.464 -119.541,51.526c-14.427,3.031 -156.639,109.114 -156.639,115.176c-0,7.577 -16.489,27.278 -22.672,25.763c-4.122,-1.515 -4.122,0 -2.061,4.546c2.061,3.031 0,4.547 -4.122,3.031c-8.244,-1.515 -22.671,10.609 -30.916,27.279c-2.061,6.062 -6.183,9.093 -8.244,9.093c-2.061,-1.516 -6.183,1.515 -8.244,4.546c-2.061,4.547 -4.122,7.578 -8.244,7.578c-2.061,-0 -4.122,1.515 -4.122,4.546c-0,6.062 10.305,3.031 20.61,-4.546l10.305,-9.093l-2.061,10.608c-2.061,6.062 -6.183,12.124 -8.244,13.639c-4.122,0 -6.183,4.547 -6.183,9.093c0,10.609 -4.122,13.639 -14.427,9.093c-6.183,-3.031 -6.183,-3.031 -0,-3.031c10.305,0 12.366,-18.186 2.061,-19.701c-4.122,-1.516 -8.244,-1.516 -8.244,1.515c-10.306,19.702 -14.428,24.248 -18.55,24.248c-4.122,0 -4.122,-1.515 0,-4.546c4.122,-3.031 12.366,-27.279 20.611,-53.042c8.244,-25.763 14.427,-50.011 16.488,-51.526c6.183,-6.062 16.488,-62.135 16.488,-80.32c0,-28.794 -35.037,-69.712 -59.77,-68.197c-6.183,0 -14.427,-3.031 -20.61,-4.546c-14.428,-6.062 -55.649,-7.578 -68.015,-3.031c-8.244,3.031 -8.244,4.546 -6.183,9.093c4.122,4.546 2.061,12.123 -0,21.216c-4.122,7.578 -12.366,36.372 -20.611,62.135c-6.183,25.763 -16.488,57.588 -20.61,69.712l-59.77,216.713l-20.611,68.196l-47.404,166.702c-14.427,56.073 -16.488,66.681 -24.732,75.774c-6.184,9.093 -6.184,12.124 2.061,19.701c4.122,4.547 10.305,9.093 12.366,9.093c2.061,0 2.061,6.062 2.061,12.124c-2.061,7.577 -2.061,13.639 2.061,15.155c2.061,1.515 4.122,-0 4.122,-6.062c0,-10.609 10.305,-3.031 18.549,12.124c2.062,7.577 10.306,15.154 22.672,18.185l18.549,10.609c0,1.515 8.245,3.031 16.489,3.031c24.732,-0 30.915,-9.093 76.258,-125.785c4.123,-12.124 16.489,-34.856 26.794,-50.011l28.855,-48.495l28.854,-45.464c10.306,-15.155 18.55,-28.794 18.55,-28.794c-0,-1.516 2.061,-4.546 4.122,-6.062c2.061,-3.031 2.061,-7.577 2.061,-10.608c-2.061,-3.031 -0,-4.547 2.061,-4.547c4.122,0 6.183,-3.031 8.244,-6.062c0,-4.546 4.122,-9.092 6.183,-9.092c4.122,-3.031 59.771,-86.383 59.771,-90.929c-0,-3.031 2.061,-6.062 6.183,-9.093c2.061,-1.515 12.366,-13.639 20.61,-25.763c8.244,-12.124 16.489,-22.732 16.489,-24.248l20.61,-24.247c8.244,-12.124 18.55,-22.732 24.733,-25.763c4.122,-3.031 4.122,-4.547 2.061,-4.547c-2.061,0 -0,-3.031 4.122,-4.546c2.061,-3.031 18.549,-15.155 30.915,-27.279c12.367,-12.123 51.527,-43.948 53.588,-45.464c2.061,0 2.061,-4.546 -0,-7.577c-2.061,-3.031 -0,-6.062 2.061,-7.578c4.122,-1.515 4.122,0 2.061,4.547c-2.061,6.062 -2.061,6.062 6.183,1.515c4.122,-3.031 6.183,-7.577 6.183,-10.608c-2.061,-3.031 -2.061,-4.546 2.061,-3.031c4.122,1.515 8.244,-0 10.305,-1.515c6.183,-6.062 28.855,-19.702 30.916,-18.186c0,1.515 8.244,3.031 2.061,15.155c-20.61,45.464 -18.549,95.475 2.061,128.815c8.244,12.124 51.526,28.794 55.648,19.701c4.122,-7.577 8.245,-86.382 136.029,-250.053Zm-276.18,63.65c0,1.515 -32.977,30.309 -41.221,36.371c-20.61,13.639 -24.732,21.217 -12.366,21.217c8.244,-0 14.427,-3.031 24.733,-15.155c4.122,-4.546 35.037,-30.31 39.159,-30.31c4.123,0 4.123,0 0,1.516c-2.061,1.515 -35.037,30.309 -41.22,37.887c-6.184,7.577 -12.367,13.639 -14.428,13.639c-2.061,0 -10.305,9.093 -18.549,18.186c-10.305,10.608 -14.428,18.186 -12.366,18.186c4.122,-0 30.915,-21.217 30.915,-25.764c0,-4.546 70.076,-57.588 72.137,-53.041c2.061,1.515 -4.122,9.093 -12.366,15.155c-8.245,7.577 -16.489,15.154 -14.428,18.185c0,1.516 -26.793,25.763 -28.854,25.763c-14.428,1.516 -14.428,1.516 -6.184,6.062c6.184,3.031 4.123,3.031 -4.122,3.031c-6.183,0 -14.427,3.031 -16.488,6.062c-6.183,4.547 -6.183,6.062 -2.061,3.031c4.122,-1.515 6.183,0 6.183,1.516c0,3.03 -2.061,4.546 -6.183,4.546c-4.122,-0 -6.183,1.515 -6.183,3.031c2.061,1.515 -0,4.546 -4.122,4.546c-4.122,0 -6.183,1.516 -6.183,3.031c2.061,1.516 -0,4.547 -6.184,7.578c-4.122,1.515 -12.366,9.093 -16.488,16.67c-4.122,6.062 -10.305,12.124 -14.427,12.124c-2.061,-0 -10.306,9.093 -16.489,19.701c-6.183,12.124 -14.427,21.217 -16.488,22.732c-4.122,1.515 -14.427,16.67 -26.794,33.34l-41.221,60.619c-10.305,16.671 -28.854,40.918 -24.732,30.31c2.061,-3.031 2.061,-6.062 -2.061,-4.546c-2.061,1.515 -4.122,6.061 -2.061,12.123c2.061,4.547 2.061,9.093 -2.061,9.093c-4.122,0 -4.122,1.516 -4.122,3.031c2.061,1.516 2.061,3.031 -0,4.547c-2.061,-0 -14.428,16.67 -26.794,34.856l-24.733,34.855l2.062,-16.67c2.061,-10.608 6.183,-19.701 8.244,-22.732c2.061,-1.515 6.183,-13.639 10.305,-25.763c2.061,-12.124 8.244,-24.248 12.366,-25.763c8.244,-6.062 10.305,-13.639 2.061,-10.608c-4.122,1.515 -4.122,-0 0,-4.547c2.061,-4.546 4.122,-10.608 2.061,-16.67c-4.122,-7.577 -4.122,-7.577 4.122,-1.516c12.367,9.093 16.489,6.062 32.977,-21.216c16.489,-24.248 18.55,-37.887 10.305,-37.887c-2.061,-0 -4.122,1.515 -4.122,4.546c0,3.031 -4.122,6.062 -6.183,6.062c-4.122,0 -4.122,3.031 -2.061,7.578c0,4.546 -2.061,12.123 -4.122,18.185c-8.244,10.609 -10.305,6.062 -2.061,-4.546c2.061,-4.547 4.122,-7.577 2.061,-9.093c-2.061,-1.515 -6.183,4.546 -12.366,13.639c-10.305,16.671 -18.55,19.702 -14.428,3.031c2.061,-6.062 4.123,-13.639 4.123,-16.67c-0,-3.031 2.061,-4.546 4.122,-3.031c4.122,1.516 45.343,-56.072 45.343,-63.65c-0,-1.515 -2.061,-4.546 -6.184,-4.546c-2.061,-0 -4.122,3.031 -4.122,6.062c0,7.577 -8.244,6.062 -12.366,-1.516c0,-6.062 0,-7.577 4.122,-6.062c10.305,1.516 20.611,-7.577 14.428,-12.124c-2.062,-3.031 -0,-4.546 4.122,-3.031c2.061,1.516 4.122,6.062 2.061,10.609c-2.061,3.031 -0,7.577 2.061,9.093c4.122,-0 6.183,-0 6.183,-3.031c-0,-1.516 10.305,-16.671 22.671,-33.341c12.367,-15.154 20.611,-30.309 18.55,-31.825c-2.061,-3.031 -2.061,-3.031 2.061,-1.515c6.183,1.515 20.61,-6.062 20.61,-12.124c0,-0 6.183,-7.577 12.367,-13.639c8.244,-6.062 20.61,-18.186 26.793,-24.248c16.489,-16.67 115.419,-90.928 121.602,-90.928c12.366,-0 8.244,6.061 -4.122,12.123c-8.244,1.516 -12.366,6.062 -12.366,7.578c-0,1.515 -4.123,3.031 -8.245,3.031c-4.122,-0 -6.183,1.515 -6.183,3.031Zm-358.622,230.352c-2.061,-0 -2.061,4.546 -2.061,9.093c0,10.608 -16.488,69.712 -37.099,134.877l-14.427,53.042l-10.305,24.247c-4.122,3.031 -4.122,7.578 -2.061,12.124c2.061,7.577 2.061,7.577 -2.061,3.031c-2.061,-3.031 -6.184,-3.031 -6.184,-1.515c0,3.031 -2.061,7.577 -6.183,12.123c-6.183,6.062 -8.244,6.062 -2.061,-4.546c4.122,-9.093 12.367,-39.402 20.611,-74.258c-0,-3.031 2.061,-7.578 4.122,-9.093l6.183,-18.186c2.061,-7.577 6.183,-12.124 6.183,-12.124c2.061,1.516 4.122,-6.062 4.122,-15.154c0,-9.093 2.061,-16.671 6.183,-18.186c2.061,-0 4.122,-3.031 2.061,-6.062c0,-3.031 2.061,-18.186 8.245,-34.856c6.183,-16.67 12.366,-37.887 12.366,-45.464c6.183,-19.701 10.305,-27.279 14.427,-16.67c2.061,4.546 0,7.577 -2.061,7.577Zm247.326,-130.331c2.061,4.546 -0,10.608 -2.061,7.577c-2.061,-1.515 -26.794,16.671 -26.794,21.217c0,0 4.122,1.516 10.305,1.516c6.183,-0 8.244,-1.516 8.244,-3.031c-2.061,-1.516 -2.061,-6.062 0,-9.093c2.062,-4.547 4.123,-4.547 6.184,-1.516c4.122,4.547 4.122,4.547 4.122,0c-0,-3.031 6.183,-9.093 10.305,-13.639c6.183,-4.546 8.244,-9.093 6.183,-9.093c-4.122,-3.031 -18.549,3.031 -16.488,6.062Zm-43.282,54.557c-10.305,1.516 -24.733,19.701 -26.794,33.341c-2.061,9.092 -2.061,10.608 4.122,4.546c4.122,-4.546 6.183,-9.093 4.122,-10.608c-2.061,-4.547 12.367,-25.763 18.55,-22.732c2.061,-0 6.183,-0 6.183,-1.516c2.061,-1.515 -0,-3.031 -6.183,-3.031Zm214.349,-150.032c-0,3.031 -8.245,7.577 -14.428,10.608c-10.305,6.062 -12.366,6.062 -14.427,1.516c-2.061,-3.031 -0,-4.547 2.061,-3.031c2.061,-0 8.244,-1.516 12.366,-6.062c10.305,-7.577 18.55,-9.093 14.428,-3.031Zm-286.486,197.012c2.061,1.515 2.061,4.546 0,6.062c-4.122,1.515 -8.244,6.062 -8.244,9.093c-2.061,7.577 -2.061,7.577 -4.122,-0c-0,-9.093 8.244,-18.186 12.366,-15.155Zm24.733,6.062c-4.122,3.031 -6.183,7.577 -6.183,9.093c-0,3.031 2.061,1.515 6.183,-3.031c4.122,-4.547 8.244,-6.062 8.244,-1.516c-0,1.516 -0,3.031 2.061,3.031c2.061,-1.515 -0,-4.546 -0,-9.093c-4.122,-4.546 -4.122,-4.546 -10.305,1.516Zm-70.076,148.516c-2.061,3.031 -6.183,7.578 -6.183,10.609c-0,1.515 4.122,-0 8.244,-3.031c4.122,-4.547 6.183,-9.093 6.183,-10.609c0,-3.031 -4.122,-1.515 -8.244,3.031Zm131.907,-213.682c-2.061,0 -4.122,-1.515 -2.061,-4.546c2.061,-1.516 0,-3.031 -2.061,-3.031c-6.183,-0 -6.183,1.515 -2.061,9.093c2.061,6.062 10.305,7.577 10.305,1.515c0,-1.515 -2.061,-3.031 -4.122,-3.031Zm214.349,-148.516c-2.061,4.546 -10.305,3.031 -14.427,-1.516c-2.061,-3.031 -2.061,-3.031 2.061,-1.515c4.122,1.515 6.183,1.515 6.183,-1.516c-0,-1.515 2.061,-3.031 4.122,-1.515c4.122,1.515 4.122,3.031 2.061,6.062Zm-222.593,106.083c2.061,0 6.183,3.031 6.183,4.546c4.122,7.578 -6.183,6.062 -10.305,-1.515c-2.061,-3.031 -0,-4.546 4.122,-3.031Zm61.831,-21.217c-2.061,1.516 -4.122,3.031 -4.122,6.062c0,1.516 2.061,1.516 6.183,1.516c2.061,-1.516 4.122,-4.547 4.122,-6.062c0,-3.031 -2.061,-3.031 -6.183,-1.516Zm-14.427,-22.732c4.122,-1.515 6.183,0 6.183,1.516c0,3.031 -2.061,4.546 -6.183,4.546c-2.061,0 -4.122,-1.515 -4.122,-1.515c-0,-1.516 2.061,-3.031 4.122,-4.547Zm24.733,-19.701c4.122,0 6.183,0 6.183,1.516c-0,1.515 -2.061,3.031 -6.183,4.546c-2.062,-0 -4.123,-0 -4.123,-1.515c0,-3.031 2.061,-4.547 4.123,-4.547Zm-278.242,169.733c-2.061,1.516 -2.061,0 -2.061,-4.546c0,-6.062 0,-7.577 2.061,-4.547c2.061,1.516 2.061,6.062 0,9.093Z" style="fill:#ffdb58;fill-rule:nonzero;"/><path d="M2785.55,549.889c-6.183,-24.248 -30.916,-39.403 -32.977,-40.918c-2.061,-1.516 -30.915,-16.67 -45.343,-18.186c-12.366,-1.515 -26.793,4.547 -32.976,1.516c-8.245,-6.062 -98.931,45.464 -119.541,51.526c-14.427,3.031 -156.64,109.114 -156.64,115.176c0,7.577 -16.488,27.278 -22.671,25.763c-4.122,-1.515 -4.122,0 -2.061,4.546c2.061,3.031 -0,4.547 -4.122,3.031c-8.245,-1.515 -22.672,10.609 -30.916,27.279c-2.061,6.062 -6.183,9.093 -8.244,9.093c-2.061,-1.516 -6.183,1.515 -8.244,4.546c-2.061,4.547 -4.122,7.578 -8.245,7.578c-2.061,-0 -4.122,1.515 -4.122,4.546c0,6.062 10.306,3.031 20.611,-4.546l10.305,-9.093l-2.061,10.608c-2.061,6.062 -6.183,12.124 -8.244,13.639c-4.122,0 -6.183,4.547 -6.183,9.093c-0,10.609 -4.122,13.639 -14.428,9.093c-6.183,-3.031 -6.183,-3.031 0,-3.031c10.306,0 12.367,-18.186 2.061,-19.701c-4.122,-1.516 -8.244,-1.516 -8.244,1.515c-10.305,19.702 -14.427,24.248 -18.549,24.248c-4.122,0 -4.122,-1.515 -0,-4.546c4.122,-3.031 12.366,-27.279 20.61,-53.042c8.244,-25.763 14.428,-50.011 16.489,-51.526c6.183,-6.062 16.488,-62.135 16.488,-80.32c-0,-28.794 -35.038,-69.712 -59.77,-68.197c-6.184,0 -14.428,-3.031 -20.611,-4.546c-14.427,-6.062 -55.648,-7.578 -68.014,-3.031c-8.245,3.031 -8.245,4.546 -6.184,9.093c4.123,4.546 2.062,12.123 0,21.216c-4.122,7.578 -12.366,36.372 -20.61,62.135c-6.183,25.763 -16.488,57.588 -20.61,69.712l-59.771,216.713l-20.61,68.196l-47.404,166.702c-14.428,56.073 -16.489,66.681 -24.733,75.774c-6.183,9.093 -6.183,12.124 2.061,19.701c4.122,4.547 10.305,9.093 12.366,9.093c2.061,0 2.061,6.062 2.061,12.124c-2.061,7.577 -2.061,13.639 2.062,15.155c2.061,1.515 4.122,-0 4.122,-6.062c-0,-10.609 10.305,-3.031 18.549,12.124c2.061,7.577 10.305,15.154 22.672,18.185l18.549,10.609c-0,1.515 8.244,3.031 16.488,3.031c24.733,-0 30.916,-9.093 76.259,-125.785c4.122,-12.124 16.488,-34.856 26.794,-50.011l28.854,-48.495l28.855,-45.464c10.305,-15.155 18.549,-28.794 18.549,-28.794c0,-1.516 2.061,-4.546 4.122,-6.062c2.062,-3.031 2.062,-7.577 2.062,-10.608c-2.062,-3.031 -0,-4.547 2.061,-4.547c4.122,0 6.183,-3.031 8.244,-6.062c-0,-4.546 4.122,-9.092 6.183,-9.092c4.122,-3.031 59.77,-86.383 59.77,-90.929c0,-3.031 2.061,-6.062 6.183,-9.093c2.061,-1.515 12.367,-13.639 20.611,-25.763c8.244,-12.124 16.488,-22.732 16.488,-24.248l20.611,-24.247c8.244,-12.124 18.549,-22.732 24.732,-25.763c4.122,-3.031 4.122,-4.547 2.061,-4.547c-2.061,0 0,-3.031 4.122,-4.546c2.061,-3.031 18.55,-15.155 30.916,-27.279c12.366,-12.123 51.526,-43.948 53.587,-45.464c2.061,0 2.061,-4.546 0,-7.577c-2.061,-3.031 0,-6.062 2.061,-7.578c4.122,-1.515 4.122,0 2.061,4.547c-2.061,6.062 -2.061,6.062 6.184,1.515c4.122,-3.031 6.183,-7.577 6.183,-10.608c-2.061,-3.031 -2.061,-4.546 2.061,-3.031c4.122,1.515 8.244,-0 10.305,-1.515c6.183,-6.062 28.855,-19.702 30.916,-18.186c-0,1.515 8.244,3.031 2.061,15.155c-20.611,45.464 -18.55,95.475 2.061,128.815c8.244,12.124 51.526,28.794 55.648,19.701c4.122,-7.577 8.244,-86.382 136.029,-250.053Zm-276.18,63.65c-0,1.515 -32.977,30.309 -41.221,36.371c-20.611,13.639 -24.733,21.217 -12.366,21.217c8.244,-0 14.427,-3.031 24.732,-15.155c4.122,-4.546 35.038,-30.31 39.16,-30.31c4.122,0 4.122,0 0,1.516c-2.061,1.515 -35.038,30.309 -41.221,37.887c-6.183,7.577 -12.366,13.639 -14.427,13.639c-2.061,0 -10.305,9.093 -18.55,18.186c-10.305,10.608 -14.427,18.186 -12.366,18.186c4.122,-0 30.916,-21.217 30.916,-25.764c-0,-4.546 70.075,-57.588 72.136,-53.041c2.061,1.515 -4.122,9.093 -12.366,15.155c-8.244,7.577 -16.488,15.154 -14.427,18.185c-0,1.516 -26.794,25.763 -28.855,25.763c-14.427,1.516 -14.427,1.516 -6.183,6.062c6.183,3.031 4.122,3.031 -4.122,3.031c-6.183,0 -14.427,3.031 -16.488,6.062c-6.184,4.547 -6.184,6.062 -2.061,3.031c4.122,-1.515 6.183,0 6.183,1.516c-0,3.03 -2.061,4.546 -6.183,4.546c-4.123,-0 -6.184,1.515 -6.184,3.031c2.061,1.515 0,4.546 -4.122,4.546c-4.122,0 -6.183,1.516 -6.183,3.031c2.061,1.516 0,4.547 -6.183,7.578c-4.122,1.515 -12.366,9.093 -16.488,16.67c-4.122,6.062 -10.306,12.124 -14.428,12.124c-2.061,-0 -10.305,9.093 -16.488,19.701c-6.183,12.124 -14.427,21.217 -16.488,22.732c-4.123,1.515 -14.428,16.67 -26.794,33.34l-41.221,60.619c-10.305,16.671 -28.855,40.918 -24.733,30.31c2.062,-3.031 2.062,-6.062 -2.061,-4.546c-2.061,1.515 -4.122,6.061 -2.061,12.123c2.061,4.547 2.061,9.093 -2.061,9.093c-4.122,0 -4.122,1.516 -4.122,3.031c2.061,1.516 2.061,3.031 0,4.547c-2.061,-0 -14.427,16.67 -26.793,34.856l-24.733,34.855l2.061,-16.67c2.061,-10.608 6.183,-19.701 8.244,-22.732c2.061,-1.515 6.183,-13.639 10.306,-25.763c2.061,-12.124 8.244,-24.248 12.366,-25.763c8.244,-6.062 10.305,-13.639 2.061,-10.608c-4.122,1.515 -4.122,-0 -0,-4.547c2.061,-4.546 4.122,-10.608 2.061,-16.67c-4.122,-7.577 -4.122,-7.577 4.122,-1.516c12.366,9.093 16.488,6.062 32.977,-21.216c16.488,-24.248 18.549,-37.887 10.305,-37.887c-2.061,-0 -4.122,1.515 -4.122,4.546c-0,3.031 -4.122,6.062 -6.183,6.062c-4.122,0 -4.122,3.031 -2.061,7.578c-0,4.546 -2.061,12.123 -4.122,18.185c-8.245,10.609 -10.306,6.062 -2.061,-4.546c2.061,-4.547 4.122,-7.577 2.061,-9.093c-2.061,-1.515 -6.184,4.546 -12.367,13.639c-10.305,16.671 -18.549,19.702 -14.427,3.031c2.061,-6.062 4.122,-13.639 4.122,-16.67c0,-3.031 2.061,-4.546 4.122,-3.031c4.122,1.516 45.343,-56.072 45.343,-63.65c0,-1.515 -2.061,-4.546 -6.183,-4.546c-2.061,-0 -4.122,3.031 -4.122,6.062c-0,7.577 -8.244,6.062 -12.366,-1.516c-0,-6.062 -0,-7.577 4.122,-6.062c10.305,1.516 20.61,-7.577 14.427,-12.124c-2.061,-3.031 0,-4.546 4.122,-3.031c2.061,1.516 4.122,6.062 2.061,10.609c-2.061,3.031 0,7.577 2.061,9.093c4.122,-0 6.183,-0 6.183,-3.031c0,-1.516 10.306,-16.671 22.672,-33.341c12.366,-15.154 20.61,-30.309 18.549,-31.825c-2.061,-3.031 -2.061,-3.031 2.061,-1.515c6.184,1.515 20.611,-6.062 20.611,-12.124c-0,-0 6.183,-7.577 12.366,-13.639c8.244,-6.062 20.611,-18.186 26.794,-24.248c16.488,-16.67 115.418,-90.928 121.602,-90.928c12.366,-0 8.244,6.061 -4.123,12.123c-8.244,1.516 -12.366,6.062 -12.366,7.578c0,1.515 -4.122,3.031 -8.244,3.031c-4.122,-0 -6.183,1.515 -6.183,3.031Zm-358.622,230.352c-2.061,-0 -2.061,4.546 -2.061,9.093c-0,10.608 -16.489,69.712 -37.099,134.877l-14.427,53.042l-10.306,24.247c-4.122,3.031 -4.122,7.578 -2.061,12.124c2.061,7.577 2.061,7.577 -2.061,3.031c-2.061,-3.031 -6.183,-3.031 -6.183,-1.515c0,3.031 -2.061,7.577 -6.183,12.123c-6.183,6.062 -8.244,6.062 -2.061,-4.546c4.122,-9.093 12.366,-39.402 20.61,-74.258c0,-3.031 2.061,-7.578 4.122,-9.093l6.184,-18.186c2.061,-7.577 6.183,-12.124 6.183,-12.124c2.061,1.516 4.122,-6.062 4.122,-15.154c-0,-9.093 2.061,-16.671 6.183,-18.186c2.061,-0 4.122,-3.031 2.061,-6.062c0,-3.031 2.061,-18.186 8.244,-34.856c6.183,-16.67 12.366,-37.887 12.366,-45.464c6.184,-19.701 10.306,-27.279 14.428,-16.67c2.061,4.546 -0,7.577 -2.061,7.577Zm247.325,-130.331c2.061,4.546 0,10.608 -2.061,7.577c-2.061,-1.515 -26.793,16.671 -26.793,21.217c-0,0 4.122,1.516 10.305,1.516c6.183,-0 8.244,-1.516 8.244,-3.031c-2.061,-1.516 -2.061,-6.062 0,-9.093c2.061,-4.547 4.122,-4.547 6.183,-1.516c4.122,4.547 4.122,4.547 4.122,0c0,-3.031 6.183,-9.093 10.306,-13.639c6.183,-4.546 8.244,-9.093 6.183,-9.093c-4.122,-3.031 -18.55,3.031 -16.489,6.062Zm-43.282,54.557c-10.305,1.516 -24.732,19.701 -26.793,33.341c-2.061,9.092 -2.061,10.608 4.122,4.546c4.122,-4.546 6.183,-9.093 4.122,-10.608c-2.061,-4.547 12.366,-25.763 18.549,-22.732c2.061,-0 6.183,-0 6.183,-1.516c2.062,-1.515 0,-3.031 -6.183,-3.031Zm214.349,-150.032c0,3.031 -8.244,7.577 -14.427,10.608c-10.305,6.062 -12.366,6.062 -14.427,1.516c-2.062,-3.031 -0,-4.547 2.061,-3.031c2.061,-0 8.244,-1.516 12.366,-6.062c10.305,-7.577 18.549,-9.093 14.427,-3.031Zm-286.485,197.012c2.061,1.515 2.061,4.546 -0,6.062c-4.122,1.515 -8.244,6.062 -8.244,9.093c-2.062,7.577 -2.062,7.577 -4.123,-0c0,-9.093 8.245,-18.186 12.367,-15.155Zm24.732,6.062c-4.122,3.031 -6.183,7.577 -6.183,9.093c0,3.031 2.061,1.515 6.183,-3.031c4.122,-4.547 8.244,-6.062 8.244,-1.516c0,1.516 0,3.031 2.062,3.031c2.061,-1.515 -0,-4.546 -0,-9.093c-4.123,-4.546 -4.123,-4.546 -10.306,1.516Zm-70.075,148.516c-2.061,3.031 -6.183,7.578 -6.183,10.609c-0,1.515 4.122,-0 8.244,-3.031c4.122,-4.547 6.183,-9.093 6.183,-10.609c-0,-3.031 -4.122,-1.515 -8.244,3.031Zm131.907,-213.682c-2.061,0 -4.122,-1.515 -2.061,-4.546c2.061,-1.516 -0,-3.031 -2.061,-3.031c-6.184,-0 -6.184,1.515 -2.061,9.093c2.061,6.062 10.305,7.577 10.305,1.515c-0,-1.515 -2.061,-3.031 -4.122,-3.031Zm214.348,-148.516c-2.061,4.546 -10.305,3.031 -14.427,-1.516c-2.061,-3.031 -2.061,-3.031 2.061,-1.515c4.122,1.515 6.183,1.515 6.183,-1.516c0,-1.515 2.061,-3.031 4.122,-1.515c4.123,1.515 4.123,3.031 2.061,6.062Zm-222.593,106.083c2.062,0 6.184,3.031 6.184,4.546c4.122,7.578 -6.184,6.062 -10.306,-1.515c-2.061,-3.031 0,-4.546 4.122,-3.031Zm61.832,-21.217c-2.061,1.516 -4.122,3.031 -4.122,6.062c-0,1.516 2.061,1.516 6.183,1.516c2.061,-1.516 4.122,-4.547 4.122,-6.062c0,-3.031 -2.061,-3.031 -6.183,-1.516Zm-14.427,-22.732c4.122,-1.515 6.183,0 6.183,1.516c-0,3.031 -2.061,4.546 -6.183,4.546c-2.061,0 -4.123,-1.515 -4.123,-1.515c0,-1.516 2.062,-3.031 4.123,-4.547Zm24.732,-19.701c4.122,0 6.183,0 6.183,1.516c0,1.515 -2.061,3.031 -6.183,4.546c-2.061,-0 -4.122,-0 -4.122,-1.515c0,-3.031 2.061,-4.547 4.122,-4.547Zm-278.241,169.733c-2.061,1.516 -2.061,0 -2.061,-4.546c-0,-6.062 -0,-7.577 2.061,-4.547c2.061,1.516 2.061,6.062 -0,9.093Z" style="fill:#ffdb58;fill-rule:nonzero;"/><path d="M3478.06,549.889c-6.183,-24.248 -30.916,-39.403 -32.977,-40.918c-2.061,-1.516 -30.916,-16.67 -45.343,-18.186c-12.366,-1.515 -26.794,4.547 -32.977,1.516c-8.244,-6.062 -98.93,45.464 -119.541,51.526c-14.427,3.031 -156.639,109.114 -156.639,115.176c-0,7.577 -16.488,27.278 -22.672,25.763c-4.122,-1.515 -4.122,0 -2.061,4.546c2.061,3.031 0,4.547 -4.122,3.031c-8.244,-1.515 -22.671,10.609 -30.915,27.279c-2.061,6.062 -6.184,9.093 -8.245,9.093c-2.061,-1.516 -6.183,1.515 -8.244,4.546c-2.061,4.547 -4.122,7.578 -8.244,7.578c-2.061,-0 -4.122,1.515 -4.122,4.546c-0,6.062 10.305,3.031 20.61,-4.546l10.306,-9.093l-2.061,10.608c-2.061,6.062 -6.184,12.124 -8.245,13.639c-4.122,0 -6.183,4.547 -6.183,9.093c0,10.609 -4.122,13.639 -14.427,9.093c-6.183,-3.031 -6.183,-3.031 -0,-3.031c10.305,0 12.366,-18.186 2.061,-19.701c-4.122,-1.516 -8.244,-1.516 -8.244,1.515c-10.305,19.702 -14.428,24.248 -18.55,24.248c-4.122,0 -4.122,-1.515 0,-4.546c4.122,-3.031 12.367,-27.279 20.611,-53.042c8.244,-25.763 14.427,-50.011 16.488,-51.526c6.183,-6.062 16.489,-62.135 16.489,-80.32c-0,-28.794 -35.038,-69.712 -59.771,-68.197c-6.183,0 -14.427,-3.031 -20.61,-4.546c-14.428,-6.062 -55.648,-7.578 -68.015,-3.031c-8.244,3.031 -8.244,4.546 -6.183,9.093c4.122,4.546 2.061,12.123 0,21.216c-4.122,7.578 -12.366,36.372 -20.61,62.135c-6.184,25.763 -16.489,57.588 -20.611,69.712l-59.77,216.713l-20.611,68.196l-47.404,166.702c-14.427,56.073 -16.488,66.681 -24.732,75.774c-6.183,9.093 -6.183,12.124 2.061,19.701c4.122,4.547 10.305,9.093 12.366,9.093c2.061,0 2.061,6.062 2.061,12.124c-2.061,7.577 -2.061,13.639 2.061,15.155c2.061,1.515 4.122,-0 4.122,-6.062c0,-10.609 10.305,-3.031 18.55,12.124c2.061,7.577 10.305,15.154 22.671,18.185l18.55,10.609c-0,1.515 8.244,3.031 16.488,3.031c24.733,-0 30.916,-9.093 76.259,-125.785c4.122,-12.124 16.488,-34.856 26.793,-50.011l28.855,-48.495l28.855,-45.464c10.305,-15.155 18.549,-28.794 18.549,-28.794c-0,-1.516 2.061,-4.546 4.122,-6.062c2.061,-3.031 2.061,-7.577 2.061,-10.608c-2.061,-3.031 0,-4.547 2.061,-4.547c4.122,0 6.183,-3.031 8.244,-6.062c0,-4.546 4.122,-9.092 6.184,-9.092c4.122,-3.031 59.77,-86.383 59.77,-90.929c-0,-3.031 2.061,-6.062 6.183,-9.093c2.061,-1.515 12.366,-13.639 20.61,-25.763c8.245,-12.124 16.489,-22.732 16.489,-24.248l20.61,-24.247c8.244,-12.124 18.55,-22.732 24.733,-25.763c4.122,-3.031 4.122,-4.547 2.061,-4.547c-2.061,0 -0,-3.031 4.122,-4.546c2.061,-3.031 18.549,-15.155 30.916,-27.279c12.366,-12.123 51.526,-43.948 53.587,-45.464c2.061,0 2.061,-4.546 -0,-7.577c-2.061,-3.031 -0,-6.062 2.061,-7.578c4.122,-1.515 4.122,0 2.061,4.547c-2.061,6.062 -2.061,6.062 6.183,1.515c4.122,-3.031 6.183,-7.577 6.183,-10.608c-2.061,-3.031 -2.061,-4.546 2.061,-3.031c4.122,1.515 8.244,-0 10.306,-1.515c6.183,-6.062 28.854,-19.702 30.915,-18.186c0,1.515 8.244,3.031 2.061,15.155c-20.61,45.464 -18.549,95.475 2.061,128.815c8.245,12.124 51.526,28.794 55.649,19.701c4.122,-7.577 8.244,-86.382 136.029,-250.053Zm-276.181,63.65c0,1.515 -32.976,30.309 -41.22,36.371c-20.611,13.639 -24.733,21.217 -12.367,21.217c8.244,-0 14.428,-3.031 24.733,-15.155c4.122,-4.546 35.038,-30.31 39.16,-30.31c4.122,0 4.122,0 -0,1.516c-2.061,1.515 -35.038,30.309 -41.221,37.887c-6.183,7.577 -12.367,13.639 -14.428,13.639c-2.061,0 -10.305,9.093 -18.549,18.186c-10.305,10.608 -14.427,18.186 -12.366,18.186c4.122,-0 30.915,-21.217 30.915,-25.764c0,-4.546 70.076,-57.588 72.137,-53.041c2.061,1.515 -4.122,9.093 -12.366,15.155c-8.244,7.577 -16.489,15.154 -14.428,18.185c0,1.516 -26.793,25.763 -28.854,25.763c-14.428,1.516 -14.428,1.516 -6.183,6.062c6.183,3.031 4.122,3.031 -4.122,3.031c-6.184,0 -14.428,3.031 -16.489,6.062c-6.183,4.547 -6.183,6.062 -2.061,3.031c4.122,-1.515 6.183,0 6.183,1.516c0,3.03 -2.061,4.546 -6.183,4.546c-4.122,-0 -6.183,1.515 -6.183,3.031c2.061,1.515 -0,4.546 -4.122,4.546c-4.122,0 -6.183,1.516 -6.183,3.031c2.061,1.516 -0,4.547 -6.183,7.578c-4.122,1.515 -12.367,9.093 -16.489,16.67c-4.122,6.062 -10.305,12.124 -14.427,12.124c-2.061,-0 -10.305,9.093 -16.488,19.701c-6.184,12.124 -14.428,21.217 -16.489,22.732c-4.122,1.515 -14.427,16.67 -26.793,33.34l-41.221,60.619c-10.306,16.671 -28.855,40.918 -24.733,30.31c2.061,-3.031 2.061,-6.062 -2.061,-4.546c-2.061,1.515 -4.122,6.061 -2.061,12.123c2.061,4.547 2.061,9.093 -2.061,9.093c-4.122,0 -4.122,1.516 -4.122,3.031c2.061,1.516 2.061,3.031 -0,4.547c-2.061,-0 -14.427,16.67 -26.794,34.856l-24.732,34.855l2.061,-16.67c2.061,-10.608 6.183,-19.701 8.244,-22.732c2.061,-1.515 6.183,-13.639 10.305,-25.763c2.061,-12.124 8.244,-24.248 12.366,-25.763c8.245,-6.062 10.306,-13.639 2.061,-10.608c-4.122,1.515 -4.122,-0 0,-4.547c2.062,-4.546 4.123,-10.608 2.062,-16.67c-4.123,-7.577 -4.123,-7.577 4.122,-1.516c12.366,9.093 16.488,6.062 32.976,-21.216c16.489,-24.248 18.55,-37.887 10.306,-37.887c-2.061,-0 -4.122,1.515 -4.122,4.546c-0,3.031 -4.123,6.062 -6.184,6.062c-4.122,0 -4.122,3.031 -2.061,7.578c0,4.546 -2.061,12.123 -4.122,18.185c-8.244,10.609 -10.305,6.062 -2.061,-4.546c2.061,-4.547 4.122,-7.577 2.061,-9.093c-2.061,-1.515 -6.183,4.546 -12.366,13.639c-10.305,16.671 -18.549,19.702 -14.427,3.031c2.061,-6.062 4.122,-13.639 4.122,-16.67c-0,-3.031 2.061,-4.546 4.122,-3.031c4.122,1.516 45.343,-56.072 45.343,-63.65c-0,-1.515 -2.061,-4.546 -6.183,-4.546c-2.061,-0 -4.122,3.031 -4.122,6.062c-0,7.577 -8.245,6.062 -12.367,-1.516c0,-6.062 0,-7.577 4.122,-6.062c10.306,1.516 20.611,-7.577 14.428,-12.124c-2.061,-3.031 -0,-4.546 4.122,-3.031c2.061,1.516 4.122,6.062 2.061,10.609c-2.061,3.031 -0,7.577 2.061,9.093c4.122,-0 6.183,-0 6.183,-3.031c0,-1.516 10.305,-16.671 22.672,-33.341c12.366,-15.154 20.61,-30.309 18.549,-31.825c-2.061,-3.031 -2.061,-3.031 2.061,-1.515c6.183,1.515 20.611,-6.062 20.611,-12.124c-0,-0 6.183,-7.577 12.366,-13.639c8.244,-6.062 20.61,-18.186 26.793,-24.248c16.489,-16.67 115.419,-90.928 121.602,-90.928c12.366,-0 8.244,6.061 -4.122,12.123c-8.244,1.516 -12.366,6.062 -12.366,7.578c-0,1.515 -4.122,3.031 -8.244,3.031c-4.123,-0 -6.184,1.515 -6.184,3.031Zm-358.622,230.352c-2.061,-0 -2.061,4.546 -2.061,9.093c0,10.608 -16.488,69.712 -37.099,134.877l-14.427,53.042l-10.305,24.247c-4.122,3.031 -4.122,7.578 -2.061,12.124c2.061,7.577 2.061,7.577 -2.061,3.031c-2.061,-3.031 -6.183,-3.031 -6.183,-1.515c-0,3.031 -2.061,7.577 -6.183,12.123c-6.184,6.062 -8.245,6.062 -2.062,-4.546c4.123,-9.093 12.367,-39.402 20.611,-74.258c-0,-3.031 2.061,-7.578 4.122,-9.093l6.183,-18.186c2.061,-7.577 6.183,-12.124 6.183,-12.124c2.061,1.516 4.122,-6.062 4.122,-15.154c0,-9.093 2.061,-16.671 6.184,-18.186c2.061,-0 4.122,-3.031 2.061,-6.062c-0,-3.031 2.061,-18.186 8.244,-34.856c6.183,-16.67 12.366,-37.887 12.366,-45.464c6.183,-19.701 10.305,-27.279 14.427,-16.67c2.061,4.546 0,7.577 -2.061,7.577Zm247.326,-130.331c2.061,4.546 -0,10.608 -2.061,7.577c-2.061,-1.515 -26.794,16.671 -26.794,21.217c0,0 4.122,1.516 10.306,1.516c6.183,-0 8.244,-1.516 8.244,-3.031c-2.061,-1.516 -2.061,-6.062 -0,-9.093c2.061,-4.547 4.122,-4.547 6.183,-1.516c4.122,4.547 4.122,4.547 4.122,0c-0,-3.031 6.183,-9.093 10.305,-13.639c6.183,-4.546 8.244,-9.093 6.183,-9.093c-4.122,-3.031 -18.549,3.031 -16.488,6.062Zm-43.282,54.557c-10.305,1.516 -24.733,19.701 -26.794,33.341c-2.061,9.092 -2.061,10.608 4.122,4.546c4.123,-4.546 6.184,-9.093 4.123,-10.608c-2.062,-4.547 12.366,-25.763 18.549,-22.732c2.061,-0 6.183,-0 6.183,-1.516c2.061,-1.515 0,-3.031 -6.183,-3.031Zm214.349,-150.032c-0,3.031 -8.244,7.577 -14.428,10.608c-10.305,6.062 -12.366,6.062 -14.427,1.516c-2.061,-3.031 0,-4.547 2.061,-3.031c2.061,-0 8.244,-1.516 12.366,-6.062c10.306,-7.577 18.55,-9.093 14.428,-3.031Zm-286.486,197.012c2.061,1.515 2.061,4.546 0,6.062c-4.122,1.515 -8.244,6.062 -8.244,9.093c-2.061,7.577 -2.061,7.577 -4.122,-0c0,-9.093 8.244,-18.186 12.366,-15.155Zm24.733,6.062c-4.122,3.031 -6.183,7.577 -6.183,9.093c-0,3.031 2.061,1.515 6.183,-3.031c4.122,-4.547 8.244,-6.062 8.244,-1.516c0,1.516 0,3.031 2.061,3.031c2.061,-1.515 0,-4.546 0,-9.093c-4.122,-4.546 -4.122,-4.546 -10.305,1.516Zm-70.076,148.516c-2.061,3.031 -6.183,7.578 -6.183,10.609c0,1.515 4.122,-0 8.244,-3.031c4.122,-4.547 6.183,-9.093 6.183,-10.609c0,-3.031 -4.122,-1.515 -8.244,3.031Zm131.907,-213.682c-2.061,0 -4.122,-1.515 -2.061,-4.546c2.061,-1.516 0,-3.031 -2.061,-3.031c-6.183,-0 -6.183,1.515 -2.061,9.093c2.061,6.062 10.305,7.577 10.305,1.515c0,-1.515 -2.061,-3.031 -4.122,-3.031Zm214.349,-148.516c-2.061,4.546 -10.305,3.031 -14.427,-1.516c-2.061,-3.031 -2.061,-3.031 2.061,-1.515c4.122,1.515 6.183,1.515 6.183,-1.516c-0,-1.515 2.061,-3.031 4.122,-1.515c4.122,1.515 4.122,3.031 2.061,6.062Zm-222.593,106.083c2.061,0 6.183,3.031 6.183,4.546c4.122,7.578 -6.183,6.062 -10.305,-1.515c-2.061,-3.031 -0,-4.546 4.122,-3.031Zm61.831,-21.217c-2.061,1.516 -4.122,3.031 -4.122,6.062c0,1.516 2.061,1.516 6.184,1.516c2.061,-1.516 4.122,-4.547 4.122,-6.062c-0,-3.031 -2.061,-3.031 -6.184,-1.516Zm-14.427,-22.732c4.122,-1.515 6.183,0 6.183,1.516c0,3.031 -2.061,4.546 -6.183,4.546c-2.061,0 -4.122,-1.515 -4.122,-1.515c0,-1.516 2.061,-3.031 4.122,-4.547Zm24.733,-19.701c4.122,0 6.183,0 6.183,1.516c-0,1.515 -2.061,3.031 -6.183,4.546c-2.061,-0 -4.122,-0 -4.122,-1.515c-0,-3.031 2.061,-4.547 4.122,-4.547Zm-278.242,169.733c-2.061,1.516 -2.061,0 -2.061,-4.546c0,-6.062 0,-7.577 2.061,-4.547c2.061,1.516 2.061,6.062 0,9.093Z" style="fill:#ffdb58;fill-rule:nonzero;"/></g></svg>